<svg version="1" xmlns="http://www.w3.org/2000/svg" width="346.667" height="346.667" viewBox="0 0 260.000000 260.000000"><path d="M118.4 13.8c-10.8 3.8-20 13.3-23.9 24.7-2.2 6.5-2.2 19.6 0 29.5 3.7 16.5 12.5 29.4 24.1 35.1 5.8 2.9 7 3.1 13.3 2.7 19-1.4 33.3-21.2 35.7-49.5 1.5-18-6.5-33.1-21.8-40.9-7-3.6-19.7-4.4-27.4-1.6zM116 39.2c4 1.2 9.8 2 15 2.1 7.2.1 9.4-.3 14.2-2.5l5.7-2.7 3.2 6.4c1.7 3.5 3.4 8.5 3.7 11l.5 4.6 2.3-2.2 2.4-2.2v2.9c0 5.4-2.9 16.7-5.9 23-10.2 21.8-32.7 27.1-46.7 11.1-4.8-5.6-10.2-16.9-11.6-24.5-1.3-6.7-.9-7.9 1.9-6.4 1.7.9 1.8.4 1.8-8.7 0-7.7.4-10.3 1.8-12.5 1.3-2 2.3-2.6 3.5-2 .9.4 4.6 1.6 8.2 2.6zM92.8 101.1c-6.3 1.5-15.8 6.8-21 11.7C67.3 117 61 125 61 126.4c0 .3 11.9.6 26.5.6s26.5-.2 26.5-.4c0-.3-2.3-4.2-5.2-8.8-2.8-4.6-5.9-10.3-6.9-12.8-1.8-4.9-3-5.4-9.1-3.9zM159.1 103.6c-.7 2-4.2 7.9-7.7 13.2-3.5 5.2-6.4 9.7-6.4 9.9 0 .2 12.2.3 27 .3 14.9 0 27-.3 27-.6 0-3.3-9.1-13.6-16.2-18.3-5.5-3.8-16.7-8.1-20.7-8.1-1 0-2.2 1.4-3 3.6zM119 112.4c0 .8 1.4 3.1 3 4.9 2 2.3 3 4.5 3 6.6 0 3 .1 3.1 4.5 3.1h4.5v-3.9c0-2.5.5-4.1 1.4-4.4 1.6-.6 5-6.6 4.3-7.4-.3-.2-2.5.1-4.8.7-4.2 1.1-10.4.9-14.2-.6-1.2-.4-1.7-.1-1.7 1zM49.5 129.7c-11.6.4-13.7 1.2-15.6 6-.6 1.6 1.1 11.4 5.7 33 3.6 17 8.1 38 9.9 46.8 2.7 12.7 3.8 16.4 5.6 17.7 2 1.7 7 1.8 75.1 1.8h73l2.1-2.4c1.5-1.7 3.3-8.4 7.3-27.2 2.9-13.7 7.2-33.9 9.6-44.9 2.3-11 4.2-21.3 4.1-22.8 0-1.7-1.1-4-2.7-5.5l-2.6-2.7-80.3-.1c-44.1 0-85.1.1-91.2.3zm83.5 50.1c1.8 1.5 2.2 2.5 1.6 4.6-.8 3.1-2.6 4.1-6.1 3.2-3.6-.9-4.5-5.4-1.5-7.8 1.2-1 2.6-1.8 3-1.8.4 0 1.8.8 3 1.8zM49.2 239.2c-1.6 1.6-1.5 3.3.4 5.2 1.4 1.4 10 1.6 80.4 1.6s79-.2 80.4-1.6c1.9-1.9 2-3.6.4-5.2-1.7-1.7-159.9-1.7-161.6 0z"/></svg>