<?xml version="1.0" standalone="no"?>
<!DOCTYPE svg PUBLIC "-//W3C//DTD SVG 20010904//EN"
 "http://www.w3.org/TR/2001/REC-SVG-20010904/DTD/svg10.dtd">
<svg version="1.0" xmlns="http://www.w3.org/2000/svg"
 width="260.000000pt" height="260.000000pt" viewBox="0 0 260.000000 260.000000"
 preserveAspectRatio="xMidYMid meet">
<metadata>
Created by potrace 1.11, written by Peter Selinger 2001-2013
</metadata>
<g transform="translate(0.000000,260.000000) scale(0.100000,-0.100000)"
fill="#000000" stroke="none">
<path d="M1217 2469 c-103 -24 -206 -112 -255 -217 -24 -52 -27 -68 -26 -177
0 -96 4 -135 23 -195 48 -155 113 -246 213 -301 123 -66 252 -39 354 75 89 98
145 264 146 426 0 99 -18 160 -70 239 -81 122 -240 184 -385 150z m-43 -258
c107 -28 195 -27 270 4 33 13 64 22 69 18 15 -9 67 -126 73 -166 6 -36 7 -37
21 -17 54 77 23 -141 -37 -259 -39 -78 -88 -131 -151 -166 -45 -24 -66 -30
-119 -29 -80 0 -127 22 -192 92 -57 61 -93 131 -119 230 -22 86 -20 108 10 93
18 -10 19 -6 18 77 0 64 4 96 17 121 20 37 10 37 140 2z"/>
<path d="M933 1586 c-85 -21 -163 -65 -227 -131 -34 -33 -69 -75 -79 -93 l-18
-32 267 0 266 0 -18 28 c-44 66 -83 135 -105 186 -13 31 -26 55 -29 55 -3 0
-28 -6 -57 -13z"/>
<path d="M1591 1554 c-11 -24 -47 -85 -80 -134 l-61 -90 270 0 c148 0 270 3
270 6 0 15 -65 96 -108 135 -63 57 -134 95 -210 113 l-62 14 -19 -44z"/>
<path d="M1201 1460 c6 -15 19 -36 30 -46 11 -10 19 -30 19 -51 0 -33 1 -33
45 -33 l46 0 -6 33 c-5 27 -1 37 25 60 16 16 30 37 30 48 0 16 -4 17 -26 9
-32 -12 -99 -13 -141 -1 -31 9 -31 9 -22 -19z"/>
<path d="M365 1275 c-15 -14 -25 -36 -25 -52 0 -15 41 -219 90 -451 50 -233
90 -433 90 -444 0 -11 13 -33 29 -49 l29 -29 722 0 722 0 29 29 c16 16 29 39
29 51 0 11 41 210 90 442 50 231 90 434 90 450 0 17 -10 39 -25 53 l-24 25
-911 0 -911 0 -24 -25z m967 -472 c26 -23 23 -59 -7 -79 -23 -15 -27 -15 -50
0 -44 29 -28 95 24 96 8 0 23 -7 33 -17z"/>
<path d="M494 206 c-3 -8 -4 -23 -2 -33 3 -17 40 -18 808 -18 l805 0 0 30 0
30 -803 3 c-693 2 -803 0 -808 -12z"/>
</g>
</svg>
